<svg id="svg" version="1.1" xmlns="http://www.w3.org/2000/svg" xmlns:xlink="http://www.w3.org/1999/xlink" width="400" height="212.25983531564503" viewBox="0, 0, 400,212.25983531564503"><g id="svgg"><path id="path0" d="M0.000 106.130 L 0.000 212.260 200.000 212.260 L 400.000 212.260 400.000 106.130 L 400.000 0.000 200.000 0.000 L 0.000 0.000 0.000 106.130 M37.328 73.921 C 48.587 75.273,54.403 79.382,55.997 87.111 C 57.841 96.044,52.935 103.706,43.652 106.396 C 41.703 106.961,41.666 106.987,42.571 107.143 C 51.695 108.720,57.677 113.756,59.191 121.134 C 59.400 122.153,59.437 119.124,59.452 100.079 L 59.469 77.833 59.973 76.840 C 61.534 73.757,65.707 73.844,67.272 76.991 C 67.599 77.650,67.614 78.854,67.661 108.036 C 67.696 129.867,67.767 138.465,67.912 138.640 C 68.078 138.840,70.970 138.884,83.848 138.884 L 99.583 138.884 97.658 136.875 C 84.227 122.859,84.885 95.591,98.967 82.608 C 112.545 70.091,136.804 71.083,148.657 84.640 C 151.709 88.132,154.808 93.587,155.443 96.587 C 155.608 97.369,155.689 97.258,156.515 95.127 C 160.588 84.617,169.248 77.330,180.512 74.937 C 190.099 72.899,200.725 73.961,208.706 77.754 C 210.954 78.822,211.392 79.327,211.490 80.962 C 211.663 83.838,209.491 85.102,206.629 83.791 C 199.377 80.470,191.245 79.505,183.715 81.072 C 169.913 83.943,161.937 94.658,161.940 110.327 C 161.943 127.230,171.003 138.019,187.008 140.179 C 193.491 141.054,205.729 139.308,207.324 137.281 C 207.741 136.750,207.904 112.005,207.496 111.241 C 207.312 110.898,206.996 110.887,196.464 110.887 L 185.622 110.887 184.807 110.476 C 182.779 109.452,182.431 106.949,184.095 105.364 C 185.070 104.436,184.711 104.457,198.628 104.519 L 210.887 104.575 211.802 104.995 C 212.306 105.226,213.064 105.755,213.487 106.169 L 214.257 106.923 214.313 93.306 C 214.377 77.740,214.292 78.576,215.984 76.725 C 217.522 75.042,218.614 74.671,223.147 74.291 C 248.241 72.184,260.563 78.915,259.967 94.404 C 259.628 103.207,254.302 109.814,245.791 111.992 C 244.661 112.281,244.625 112.377,245.455 112.890 C 248.510 114.779,251.091 119.398,256.729 133.074 C 258.668 137.779,260.305 141.627,260.366 141.626 C 260.426 141.625,265.453 127.977,271.537 111.297 C 284.663 75.309,283.640 78.008,284.558 76.965 C 287.392 73.745,292.921 74.470,294.866 78.317 C 295.095 78.769,300.297 92.914,306.425 109.749 L 317.566 140.357 317.658 109.017 C 317.761 73.816,317.609 77.184,319.153 75.862 C 321.105 74.191,324.615 74.730,326.658 77.015 C 327.106 77.517,332.451 86.358,339.030 97.481 C 345.400 108.251,350.711 117.195,350.832 117.357 C 351.017 117.604,352.885 114.533,362.576 98.049 C 368.914 87.268,374.349 78.099,374.653 77.674 C 377.188 74.129,382.332 73.918,384.133 77.284 L 384.538 78.042 384.587 109.778 C 384.619 130.772,384.572 141.855,384.449 142.522 C 383.756 146.271,379.101 147.137,377.183 143.874 L 376.670 143.001 376.578 115.514 L 376.487 88.027 366.334 105.084 C 354.099 125.640,354.833 124.703,350.961 124.703 C 347.033 124.703,347.742 125.603,335.590 105.182 L 325.435 88.116 325.343 115.559 C 325.241 146.038,325.353 143.438,324.087 144.801 C 322.621 146.381,319.599 146.196,318.460 144.458 L 318.167 144.012 317.775 144.587 C 316.632 146.267,314.256 146.378,312.047 144.856 C 310.436 143.746,310.231 143.303,307.132 134.217 C 305.553 129.588,304.144 125.677,304.000 125.526 C 303.641 125.150,275.209 125.018,274.487 125.389 C 274.111 125.582,273.750 126.467,272.158 131.107 C 268.422 141.991,268.047 143.001,267.416 143.869 C 265.862 146.011,262.365 146.616,260.937 144.990 L 260.394 144.371 260.104 144.814 C 259.048 146.425,255.801 146.114,253.843 144.214 C 252.828 143.229,252.899 143.382,248.715 133.113 C 242.130 116.952,241.440 116.062,234.859 115.257 C 232.913 115.019,222.610 114.936,222.387 115.157 C 222.302 115.241,222.191 121.622,222.141 129.338 L 222.049 143.367 221.609 144.017 C 219.092 147.734,214.273 145.719,214.273 140.949 L 214.273 140.105 213.542 141.125 C 209.532 146.725,188.968 148.761,176.935 144.749 C 167.145 141.485,158.094 132.591,155.976 124.154 C 155.826 123.554,155.605 123.573,155.450 124.199 C 154.148 129.466,149.232 136.472,144.099 140.377 C 133.423 148.498,115.299 149.146,103.648 141.823 C 102.575 141.148,101.991 140.867,102.104 141.080 C 102.689 142.172,101.989 144.264,100.769 145.072 L 100.027 145.563 81.898 145.563 L 63.769 145.563 62.914 145.167 C 59.855 143.754,59.582 142.952,59.464 135.041 C 59.410 131.468,59.349 128.808,59.327 129.128 C 58.419 142.305,43.835 148.628,20.384 146.011 C 16.349 145.561,14.300 143.868,13.727 140.510 C 13.332 138.198,13.561 79.323,13.969 78.272 C 15.266 74.933,17.038 74.283,26.532 73.664 C 28.287 73.550,35.710 73.726,37.328 73.921 M26.532 80.147 C 23.540 80.453,22.100 80.736,21.748 81.088 C 21.236 81.600,21.217 103.867,21.729 104.077 C 23.157 104.663,35.046 103.969,38.584 103.093 C 46.716 101.080,50.759 95.063,48.605 88.179 C 46.685 82.043,38.193 78.953,26.532 80.147 M227.722 80.445 C 224.163 80.822,222.768 81.090,222.461 81.454 C 222.007 81.992,221.961 108.131,222.413 108.507 C 222.837 108.858,234.970 108.649,237.511 108.247 C 247.615 106.646,252.249 102.091,252.230 93.779 C 252.213 86.396,247.891 82.226,238.760 80.782 C 236.934 80.493,229.428 80.264,227.722 80.445 M119.798 80.706 C 104.104 82.099,94.584 95.709,96.256 114.364 C 97.766 131.221,108.973 141.235,125.104 140.140 C 141.435 139.032,151.156 125.251,149.224 105.947 C 147.541 89.143,136.027 79.266,119.798 80.706 M282.830 100.175 C 279.425 110.082,276.668 118.336,276.703 118.518 C 276.802 119.031,301.423 119.031,301.522 118.518 C 301.585 118.190,289.287 82.163,289.113 82.163 C 289.062 82.163,286.235 90.268,282.830 100.175 M125.252 90.399 C 135.019 91.502,140.796 98.466,140.803 109.149 C 140.811 120.630,134.469 127.770,123.867 128.218 C 112.358 128.703,104.999 121.426,104.955 109.515 C 104.907 96.738,113.094 89.027,125.252 90.399 M21.638 110.723 C 21.459 110.909,21.409 114.001,21.409 124.918 L 21.409 138.875 21.821 139.138 C 23.309 140.087,33.920 140.460,38.152 139.712 C 47.708 138.022,52.412 132.515,51.911 123.605 C 51.497 116.222,46.867 112.451,36.400 110.971 C 33.537 110.566,21.975 110.372,21.638 110.723 " stroke="none" fill="#fcfcfc" fill-rule="evenodd"></path><path id="path1" d="M117.200 74.400 C 102.581 76.390,92.076 86.282,89.137 100.827 C 86.331 114.714,89.670 128.396,97.963 136.998 L 100.046 139.158 83.981 139.067 C 75.146 139.016,67.848 138.907,67.764 138.823 C 67.681 138.739,67.571 124.905,67.521 108.082 C 67.420 74.315,67.525 77.097,66.302 75.862 C 64.576 74.117,61.720 74.400,60.294 76.457 L 59.744 77.250 59.652 101.708 C 59.602 115.160,59.602 129.666,59.652 133.943 L 59.744 141.720 60.231 142.543 C 60.848 143.585,61.711 144.405,62.763 144.952 L 63.586 145.380 81.593 145.428 C 99.311 145.476,99.611 145.471,100.359 145.108 C 101.777 144.422,102.418 142.983,102.013 141.391 C 101.893 140.918,101.811 140.531,101.831 140.531 C 101.851 140.531,102.435 140.904,103.129 141.360 C 115.943 149.781,135.476 148.339,146.490 138.158 C 150.498 134.455,155.535 126.251,155.535 123.430 C 155.535 122.815,155.851 123.202,156.165 124.199 C 159.529 134.915,169.533 143.504,181.336 145.810 C 185.334 146.591,186.097 146.655,191.400 146.650 C 202.605 146.639,211.169 144.393,213.630 140.821 L 214.273 139.887 214.273 123.484 L 214.273 107.082 213.268 106.164 C 211.539 104.583,212.274 104.652,197.759 104.708 C 185.219 104.757,185.014 104.763,184.517 105.135 C 183.190 106.125,182.825 107.627,183.565 109.047 C 184.440 110.724,183.525 110.606,196.111 110.663 C 203.836 110.698,207.274 110.774,207.443 110.914 C 207.881 111.278,207.791 137.084,207.350 137.483 C 205.100 139.520,194.008 141.115,187.390 140.354 C 171.356 138.510,161.745 127.275,161.758 110.391 C 161.771 94.953,169.806 83.896,183.074 81.062 C 190.623 79.450,198.586 80.204,205.484 83.186 C 209.142 84.767,210.676 84.461,211.334 82.017 C 211.817 80.221,211.023 78.973,208.680 77.849 C 198.230 72.834,183.010 72.795,172.613 77.758 C 165.151 81.320,159.095 88.089,156.268 96.027 L 155.664 97.726 155.162 96.210 C 150.013 80.636,134.954 71.984,117.200 74.400 M287.261 75.317 C 286.049 75.737,284.718 76.810,284.072 77.887 C 283.444 78.934,260.394 141.887,260.247 142.955 C 259.883 145.609,263.666 146.715,266.381 144.749 C 267.560 143.894,267.909 143.091,270.992 134.131 C 272.589 129.489,273.994 125.571,274.116 125.425 C 274.385 125.101,303.329 125.019,303.930 125.341 C 304.339 125.560,304.222 125.248,307.499 134.845 C 310.300 143.048,310.568 143.639,311.942 144.637 C 314.208 146.282,316.562 146.186,317.780 144.398 L 318.176 143.816 318.561 144.356 C 320.235 146.708,324.182 145.965,324.964 143.151 C 325.097 142.673,325.158 133.819,325.159 115.101 C 325.160 88.456,325.169 87.760,325.500 88.111 C 325.686 88.310,330.359 96.078,335.884 105.373 C 347.712 125.275,347.209 124.622,350.738 124.658 C 354.724 124.699,354.086 125.507,366.329 104.905 C 371.902 95.525,376.529 87.893,376.612 87.944 C 376.694 87.995,376.761 100.325,376.761 115.345 L 376.761 142.655 377.243 143.622 C 378.645 146.434,382.337 146.525,383.905 143.787 L 384.355 143.001 384.411 111.070 C 384.452 87.501,384.412 78.884,384.256 78.161 C 383.401 74.181,377.531 73.949,374.723 77.784 C 374.385 78.246,368.923 87.447,362.585 98.231 C 353.560 113.586,351.015 117.788,350.843 117.610 C 350.723 117.486,345.343 108.449,338.888 97.530 C 331.159 84.457,326.889 77.408,326.384 76.890 C 323.753 74.191,319.149 74.535,318.016 77.515 C 317.907 77.800,317.841 89.897,317.841 109.472 C 317.841 128.609,317.775 140.902,317.673 140.796 C 317.580 140.700,312.468 126.789,306.312 109.883 C 293.304 74.159,294.851 78.191,293.687 76.961 C 292.082 75.264,289.395 74.577,287.261 75.317 M126.121 80.616 C 139.260 81.638,148.478 92.225,149.483 107.447 C 150.783 127.123,140.078 140.354,122.873 140.339 C 107.376 140.324,97.227 130.111,96.070 113.366 C 94.846 95.653,103.869 82.561,118.580 80.707 C 121.310 80.363,122.665 80.347,126.121 80.616 M289.471 82.571 C 292.263 90.446,301.741 118.332,301.700 118.548 C 301.615 118.987,276.722 119.104,276.554 118.666 C 276.496 118.515,279.063 110.795,282.258 101.510 C 285.454 92.226,288.270 84.032,288.516 83.303 C 289.015 81.822,289.164 81.707,289.471 82.571 M119.778 90.584 C 109.862 92.139,104.082 100.338,105.044 111.482 C 106.040 123.009,115.087 129.836,126.686 127.813 C 136.424 126.115,142.287 116.663,140.534 105.489 C 138.916 95.175,130.237 88.943,119.778 90.584 " stroke="none" fill="#040404" fill-rule="evenodd"></path><path id="path2" d="M26.441 73.769 C 16.776 74.086,14.404 75.232,13.727 79.911 C 13.482 81.611,13.484 138.719,13.730 140.420 C 14.262 144.095,16.285 145.524,21.775 146.105 C 46.962 148.770,59.996 141.221,59.420 124.302 C 59.114 115.342,52.681 108.703,42.953 107.310 C 41.807 107.146,41.710 106.925,42.675 106.681 C 52.492 104.202,58.023 95.915,55.950 86.793 C 53.764 77.172,44.697 73.170,26.441 73.769 M227.996 74.036 C 217.715 74.524,215.770 75.292,214.614 79.318 C 214.374 80.154,214.409 142.761,214.650 143.400 C 215.828 146.525,220.258 146.619,221.706 143.550 L 222.137 142.635 222.139 128.963 C 222.141 115.635,222.150 115.287,222.495 115.103 C 222.948 114.860,230.807 114.856,233.716 115.097 C 241.463 115.739,241.838 116.192,248.795 133.303 C 250.759 138.134,252.560 142.422,252.797 142.833 C 254.389 145.595,258.281 146.741,259.919 144.931 C 260.932 143.812,260.655 142.777,256.855 133.486 C 251.292 119.885,249.109 115.871,245.901 113.351 C 244.550 112.290,244.525 112.356,246.526 111.737 C 254.755 109.193,259.543 102.983,259.957 94.319 C 260.632 80.205,249.315 73.023,227.996 74.036 M37.817 80.404 C 45.482 81.722,49.024 85.334,49.036 91.846 C 49.050 99.284,43.576 103.215,31.950 104.117 C 28.540 104.382,21.906 104.358,21.629 104.081 C 21.462 103.914,21.409 101.083,21.409 92.457 L 21.409 81.052 21.890 80.870 C 22.332 80.701,25.067 80.261,26.807 80.078 C 28.528 79.898,36.191 80.124,37.817 80.404 M239.616 80.853 C 248.173 82.434,252.333 86.752,252.333 94.053 C 252.333 102.436,247.042 107.146,236.206 108.407 C 232.645 108.821,222.411 108.818,222.252 108.402 C 222.191 108.243,222.141 102.156,222.141 94.875 C 222.141 81.105,222.140 81.114,222.840 81.050 C 222.908 81.044,224.076 80.882,225.435 80.692 C 228.875 80.208,236.604 80.296,239.616 80.853 M35.158 110.790 C 47.021 112.049,51.876 116.090,51.876 124.703 C 51.876 133.894,46.718 138.907,36.149 139.990 C 31.692 140.447,22.217 139.875,21.638 139.114 C 21.303 138.675,21.303 110.778,21.638 110.643 C 22.186 110.421,32.771 110.537,35.158 110.790 " stroke="none" fill="#fb3535" fill-rule="evenodd"></path><path id="path3" d="M122.553 74.059 C 122.980 74.097,123.680 74.097,124.108 74.059 C 124.536 74.020,124.186 73.989,123.330 73.989 C 122.475 73.989,122.125 74.020,122.553 74.059 M189.341 74.060 C 189.870 74.097,190.734 74.097,191.263 74.060 C 191.791 74.023,191.359 73.993,190.302 73.993 C 189.245 73.993,188.813 74.023,189.341 74.060 M59.558 100.732 C 59.558 113.111,59.580 118.202,59.607 112.045 C 59.633 105.889,59.633 95.761,59.607 89.538 C 59.580 83.316,59.558 88.353,59.558 100.732 M317.613 109.716 C 317.587 126.784,317.628 140.787,317.704 140.833 C 317.779 140.880,317.841 126.915,317.841 109.800 C 317.841 92.686,317.800 78.683,317.750 78.683 C 317.701 78.683,317.639 92.647,317.613 109.716 M190.805 80.279 C 191.132 80.319,191.667 80.319,191.995 80.279 C 192.322 80.238,192.054 80.205,191.400 80.205 C 190.746 80.205,190.478 80.238,190.805 80.279 M122.461 80.456 C 122.637 80.502,122.925 80.502,123.102 80.456 C 123.278 80.409,123.134 80.372,122.781 80.372 C 122.429 80.372,122.285 80.409,122.461 80.456 M88.240 107.228 C 88.240 107.580,88.278 107.724,88.324 107.548 C 88.370 107.372,88.370 107.084,88.324 106.908 C 88.278 106.731,88.240 106.876,88.240 107.228 M104.895 107.868 C 104.897 108.271,104.935 108.414,104.978 108.186 C 105.022 107.959,105.021 107.629,104.975 107.454 C 104.929 107.279,104.893 107.466,104.895 107.868 M161.799 107.960 C 161.799 108.312,161.837 108.456,161.883 108.280 C 161.929 108.104,161.929 107.816,161.883 107.640 C 161.837 107.463,161.799 107.608,161.799 107.960 M214.360 123.605 C 214.360 132.562,214.383 136.199,214.410 131.688 C 214.437 127.177,214.437 119.848,214.410 115.403 C 214.383 110.957,214.360 114.648,214.360 123.605 M140.760 108.417 C 140.762 108.820,140.799 108.963,140.843 108.735 C 140.887 108.508,140.885 108.178,140.839 108.003 C 140.794 107.828,140.758 108.015,140.760 108.417 M95.946 110.430 C 95.946 111.235,95.978 111.542,96.017 111.111 C 96.056 110.681,96.055 110.022,96.016 109.647 C 95.977 109.273,95.945 109.625,95.946 110.430 M149.555 110.339 C 149.555 110.993,149.589 111.260,149.629 110.933 C 149.670 110.606,149.670 110.071,149.629 109.744 C 149.589 109.417,149.555 109.684,149.555 110.339 M140.756 110.156 C 140.756 110.508,140.794 110.652,140.840 110.476 C 140.886 110.300,140.886 110.011,140.840 109.835 C 140.794 109.659,140.756 109.803,140.756 110.156 M104.895 110.796 C 104.897 111.199,104.935 111.342,104.978 111.114 C 105.022 110.886,105.021 110.557,104.975 110.382 C 104.929 110.207,104.893 110.393,104.895 110.796 M161.803 112.809 C 161.805 113.211,161.842 113.354,161.886 113.127 C 161.930 112.899,161.928 112.570,161.882 112.395 C 161.837 112.220,161.801 112.406,161.803 112.809 M88.244 113.724 C 88.246 114.126,88.283 114.269,88.327 114.042 C 88.371 113.814,88.369 113.485,88.323 113.310 C 88.278 113.135,88.242 113.321,88.244 113.724 M59.552 133.943 C 59.552 137.617,59.576 139.119,59.606 137.283 C 59.636 135.446,59.636 132.441,59.606 130.604 C 59.576 128.767,59.552 130.270,59.552 133.943 M122.553 128.217 C 122.779 128.261,123.150 128.261,123.376 128.217 C 123.602 128.173,123.417 128.138,122.964 128.138 C 122.511 128.138,122.326 128.173,122.553 128.217 M75.892 139.021 C 80.144 139.048,87.102 139.048,91.354 139.021 C 95.606 138.994,92.127 138.971,83.623 138.971 C 75.119 138.971,71.640 138.994,75.892 139.021 " stroke="none" fill="#444444" fill-rule="evenodd"></path><path id="path4" d="M28.138 73.693 C 28.569 73.732,29.228 73.731,29.602 73.692 C 29.977 73.653,29.625 73.621,28.820 73.622 C 28.015 73.622,27.708 73.655,28.138 73.693 M31.610 73.691 C 31.937 73.732,32.473 73.732,32.800 73.691 C 33.127 73.651,32.859 73.618,32.205 73.618 C 31.551 73.618,31.283 73.651,31.610 73.691 M120.174 74.057 C 120.501 74.098,121.036 74.098,121.363 74.057 C 121.690 74.017,121.423 73.984,120.769 73.984 C 120.114 73.984,119.847 74.017,120.174 74.057 M125.114 74.054 C 125.341 74.098,125.711 74.098,125.938 74.054 C 126.164 74.010,125.979 73.975,125.526 73.975 C 125.073 73.975,124.888 74.010,125.114 74.054 M187.239 74.056 C 187.518 74.098,187.929 74.097,188.154 74.054 C 188.379 74.010,188.152 73.976,187.649 73.977 C 187.145 73.979,186.961 74.014,187.239 74.056 M192.543 74.056 C 192.820 74.098,193.273 74.098,193.550 74.056 C 193.827 74.014,193.600 73.980,193.047 73.980 C 192.493 73.980,192.267 74.014,192.543 74.056 M228.408 74.051 C 228.584 74.097,228.872 74.097,229.048 74.051 C 229.225 74.005,229.081 73.967,228.728 73.967 C 228.376 73.967,228.232 74.005,228.408 74.051 M234.629 74.056 C 234.906 74.098,235.359 74.098,235.636 74.056 C 235.913 74.014,235.686 73.980,235.133 73.980 C 234.579 73.980,234.353 74.014,234.629 74.056 M195.288 74.234 C 195.464 74.280,195.753 74.280,195.929 74.234 C 196.105 74.188,195.961 74.150,195.608 74.150 C 195.256 74.150,195.112 74.188,195.288 74.234 M288.704 74.973 C 289.033 75.013,289.527 75.012,289.802 74.971 C 290.077 74.929,289.808 74.896,289.204 74.897 C 288.600 74.898,288.375 74.932,288.704 74.973 M321.363 74.971 C 321.640 75.013,322.093 75.013,322.370 74.971 C 322.646 74.929,322.420 74.895,321.866 74.895 C 321.313 74.895,321.086 74.929,321.363 74.971 M379.735 74.971 C 380.011 75.013,380.464 75.013,380.741 74.971 C 381.018 74.929,380.791 74.895,380.238 74.895 C 379.684 74.895,379.458 74.929,379.735 74.971 M318.686 76.304 C 318.322 76.707,318.024 77.094,318.024 77.164 C 318.024 77.234,318.086 77.214,318.162 77.118 C 318.237 77.022,318.583 76.635,318.929 76.258 C 319.276 75.881,319.512 75.572,319.453 75.572 C 319.395 75.572,319.049 75.901,318.686 76.304 M284.711 76.807 L 284.081 77.493 284.767 76.863 C 285.144 76.516,285.453 76.207,285.453 76.176 C 285.453 76.037,285.298 76.168,284.711 76.807 M326.349 76.853 C 326.743 77.255,327.105 77.585,327.156 77.585 C 327.206 77.585,326.926 77.255,326.532 76.853 C 326.139 76.450,325.777 76.121,325.726 76.121 C 325.676 76.121,325.956 76.450,326.349 76.853 M249.421 76.922 C 249.607 77.092,251.418 77.947,251.418 77.865 C 251.418 77.762,249.671 76.853,249.472 76.853 C 249.402 76.853,249.379 76.884,249.421 76.922 M138.350 77.105 C 138.537 77.275,140.348 78.130,140.348 78.048 C 140.348 77.945,138.600 77.036,138.402 77.036 C 138.331 77.036,138.308 77.067,138.350 77.105 M67.610 108.417 C 67.610 124.922,67.631 131.647,67.658 123.362 C 67.684 115.076,67.684 101.572,67.658 93.352 C 67.631 85.133,67.610 91.912,67.610 108.417 M384.536 110.430 C 384.536 127.841,384.557 134.936,384.584 126.198 C 384.610 117.459,384.610 103.214,384.584 94.542 C 384.557 85.870,384.536 93.019,384.536 110.430 M187.877 80.459 C 188.104 80.502,188.474 80.502,188.701 80.459 C 188.927 80.415,188.742 80.379,188.289 80.379 C 187.836 80.379,187.651 80.415,187.877 80.459 M193.824 80.456 C 194.000 80.502,194.289 80.502,194.465 80.456 C 194.641 80.409,194.497 80.372,194.145 80.372 C 193.792 80.372,193.648 80.409,193.824 80.456 M120.085 80.644 C 120.363 80.686,120.775 80.685,121.000 80.641 C 121.225 80.598,120.997 80.563,120.494 80.565 C 119.991 80.566,119.807 80.602,120.085 80.644 M124.842 80.644 C 125.121 80.686,125.532 80.685,125.757 80.641 C 125.982 80.598,125.755 80.563,125.252 80.565 C 124.748 80.566,124.564 80.602,124.842 80.644 M214.316 93.755 C 214.275 106.249,214.257 106.894,213.952 106.659 C 213.716 106.476,213.728 106.523,213.998 106.839 L 214.364 107.266 214.412 100.555 C 214.439 96.863,214.437 90.864,214.410 87.223 C 214.382 83.583,214.340 86.522,214.316 93.755 M99.806 81.839 L 99.268 82.434 99.863 81.896 C 100.190 81.601,100.457 81.333,100.457 81.302 C 100.457 81.160,100.306 81.285,99.806 81.839 M147.210 83.257 C 147.909 83.962,148.522 84.538,148.572 84.538 C 148.622 84.538,148.092 83.962,147.392 83.257 C 146.693 82.553,146.080 81.976,146.030 81.976 C 145.980 81.976,146.510 82.553,147.210 83.257 M163.857 83.852 L 162.214 85.544 163.907 83.901 C 165.479 82.375,165.683 82.159,165.550 82.159 C 165.522 82.159,164.761 82.921,163.857 83.852 M97.793 83.669 L 97.255 84.263 97.850 83.726 C 98.177 83.430,98.445 83.163,98.445 83.131 C 98.445 82.990,98.294 83.114,97.793 83.669 M45.563 83.497 C 45.563 83.529,45.830 83.796,46.157 84.092 L 46.752 84.629 46.215 84.035 C 45.714 83.480,45.563 83.356,45.563 83.497 M104.204 87.694 L 102.928 89.021 104.254 87.745 C 104.984 87.043,105.581 86.446,105.581 86.418 C 105.581 86.284,105.389 86.462,104.204 87.694 M141.171 87.649 C 141.870 88.353,142.483 88.930,142.534 88.930 C 142.584 88.930,142.053 88.353,141.354 87.649 C 140.655 86.944,140.042 86.368,139.992 86.368 C 139.941 86.368,140.472 86.944,141.171 87.649 M170.906 87.191 C 170.461 87.644,170.139 88.015,170.189 88.015 C 170.239 88.015,170.644 87.644,171.089 87.191 C 171.533 86.738,171.856 86.368,171.805 86.368 C 171.755 86.368,171.350 86.738,170.906 87.191 M325.205 115.050 L 325.250 142.086 325.297 115.131 C 325.333 94.858,325.397 88.209,325.555 88.307 C 325.685 88.387,325.716 88.357,325.635 88.226 C 325.563 88.110,325.427 88.015,325.332 88.015 C 325.225 88.015,325.177 98.247,325.205 115.050 M376.667 115.188 C 376.667 130.183,376.689 136.290,376.715 128.760 C 376.742 121.229,376.742 108.960,376.715 101.495 C 376.689 94.031,376.667 100.192,376.667 115.188 M122.191 90.345 C 122.622 90.383,123.281 90.383,123.655 90.343 C 124.030 90.304,123.678 90.272,122.873 90.273 C 122.068 90.274,121.761 90.306,122.191 90.345 M157.814 92.057 C 157.653 92.369,157.554 92.656,157.593 92.695 C 157.633 92.735,157.802 92.480,157.970 92.129 C 158.346 91.340,158.216 91.280,157.814 92.057 M165.874 93.321 C 165.718 93.623,165.631 93.870,165.681 93.870 C 165.732 93.870,165.901 93.623,166.057 93.321 C 166.213 93.019,166.299 92.772,166.249 92.772 C 166.199 92.772,166.030 93.019,165.874 93.321 M110.058 95.197 L 108.966 96.340 110.110 95.248 C 110.739 94.647,111.253 94.133,111.253 94.105 C 111.253 93.969,111.073 94.134,110.058 95.197 M135.499 95.151 C 136.096 95.755,136.626 96.249,136.677 96.249 C 136.727 96.249,136.279 95.755,135.682 95.151 C 135.084 94.547,134.554 94.053,134.504 94.053 C 134.453 94.053,134.901 94.547,135.499 95.151 M106.762 99.743 C 106.601 100.054,106.501 100.341,106.541 100.381 C 106.581 100.420,106.750 100.166,106.918 99.815 C 107.294 99.026,107.164 98.965,106.762 99.743 M248.664 103.522 L 248.033 104.209 248.719 103.578 C 249.358 102.991,249.489 102.836,249.350 102.836 C 249.319 102.836,249.010 103.145,248.664 103.522 M28.866 104.249 C 29.193 104.290,29.728 104.290,30.055 104.249 C 30.382 104.209,30.114 104.176,29.460 104.176 C 28.806 104.176,28.538 104.209,28.866 104.249 M191.720 104.620 C 195.167 104.648,200.807 104.648,204.254 104.620 C 207.701 104.592,204.881 104.570,197.987 104.570 C 191.093 104.570,188.273 104.592,191.720 104.620 M212.260 105.266 C 212.260 105.301,212.527 105.525,212.855 105.765 C 213.223 106.034,213.350 106.078,213.190 105.880 C 212.946 105.580,212.260 105.127,212.260 105.266 M88.240 106.130 C 88.240 106.482,88.278 106.626,88.324 106.450 C 88.370 106.274,88.370 105.986,88.324 105.810 C 88.278 105.634,88.240 105.778,88.240 106.130 M96.116 107.045 C 96.116 107.498,96.151 107.683,96.195 107.457 C 96.239 107.230,96.239 106.860,96.195 106.633 C 96.151 106.407,96.116 106.592,96.116 107.045 M254.702 106.999 L 254.071 107.685 254.758 107.055 C 255.396 106.468,255.528 106.313,255.388 106.313 C 255.358 106.313,255.049 106.622,254.702 106.999 M140.760 107.136 C 140.762 107.539,140.799 107.682,140.843 107.454 C 140.887 107.227,140.885 106.897,140.839 106.722 C 140.794 106.548,140.758 106.734,140.760 107.136 M149.364 107.228 C 149.364 107.681,149.399 107.866,149.443 107.640 C 149.487 107.413,149.487 107.043,149.443 106.816 C 149.399 106.590,149.364 106.775,149.364 107.228 M183.025 107.777 C 183.025 108.129,183.063 108.273,183.109 108.097 C 183.155 107.921,183.155 107.633,183.109 107.457 C 183.063 107.280,183.025 107.425,183.025 107.777 M161.824 110.339 C 161.824 111.395,161.855 111.828,161.892 111.299 C 161.928 110.771,161.928 109.906,161.892 109.378 C 161.855 108.849,161.824 109.282,161.824 110.339 M49.055 109.127 C 49.242 109.296,50.686 109.970,50.686 109.888 C 50.686 109.784,49.305 109.058,49.108 109.058 C 49.037 109.058,49.013 109.089,49.055 109.127 M88.077 110.430 C 88.078 111.235,88.110 111.542,88.149 111.111 C 88.188 110.681,88.187 110.022,88.148 109.647 C 88.108 109.273,88.077 109.625,88.077 110.430 M32.434 110.648 C 32.610 110.694,32.898 110.694,33.074 110.648 C 33.250 110.602,33.106 110.564,32.754 110.564 C 32.402 110.564,32.258 110.602,32.434 110.648 M140.760 111.345 C 140.762 111.747,140.799 111.891,140.843 111.663 C 140.887 111.435,140.885 111.106,140.839 110.931 C 140.794 110.756,140.758 110.942,140.760 111.345 M190.897 110.842 C 193.891 110.870,198.790 110.870,201.784 110.842 C 204.778 110.813,202.328 110.790,196.340 110.790 C 190.352 110.790,187.903 110.813,190.897 110.842 M53.614 111.860 C 53.614 111.891,53.882 112.159,54.209 112.454 L 54.803 112.992 54.266 112.397 C 53.765 111.843,53.614 111.718,53.614 111.860 M149.364 113.632 C 149.364 114.085,149.399 114.270,149.443 114.044 C 149.487 113.817,149.487 113.447,149.443 113.220 C 149.399 112.994,149.364 113.179,149.364 113.632 M96.112 113.724 C 96.114 114.126,96.152 114.269,96.195 114.042 C 96.239 113.814,96.237 113.485,96.192 113.310 C 96.146 113.135,96.110 113.321,96.112 113.724 M230.882 115.046 C 231.210 115.086,231.705 115.086,231.979 115.044 C 232.254 115.002,231.985 114.969,231.382 114.970 C 230.778 114.971,230.553 115.005,230.882 115.046 M240.897 117.475 C 241.290 117.877,241.652 118.207,241.703 118.207 C 241.753 118.207,241.473 117.877,241.080 117.475 C 240.687 117.072,240.324 116.743,240.273 116.743 C 240.223 116.743,240.504 117.072,240.897 117.475 M110.339 123.571 C 110.339 123.602,110.606 123.870,110.933 124.165 L 111.528 124.703 110.990 124.108 C 110.490 123.554,110.339 123.429,110.339 123.571 M121.000 128.219 C 121.278 128.261,121.690 128.260,121.915 128.217 C 122.140 128.173,121.912 128.139,121.409 128.140 C 120.906 128.142,120.722 128.177,121.000 128.219 M124.016 128.217 C 124.243 128.261,124.613 128.261,124.840 128.217 C 125.066 128.173,124.881 128.138,124.428 128.138 C 123.975 128.138,123.790 128.173,124.016 128.217 M167.978 130.341 C 167.978 130.372,168.246 130.640,168.573 130.936 L 169.167 131.473 168.630 130.878 C 168.129 130.324,167.978 130.200,167.978 130.341 M169.442 131.988 C 169.442 132.019,169.710 132.287,170.037 132.582 L 170.631 133.120 170.094 132.525 C 169.593 131.971,169.442 131.846,169.442 131.988 M104.209 133.211 C 104.806 133.815,105.336 134.309,105.387 134.309 C 105.437 134.309,104.989 133.815,104.392 133.211 C 103.794 132.608,103.264 132.113,103.214 132.113 C 103.163 132.113,103.611 132.608,104.209 133.211 M141.256 133.166 L 140.256 134.218 141.308 133.218 C 142.286 132.288,142.444 132.113,142.308 132.113 C 142.280 132.113,141.806 132.587,141.256 133.166 M171.089 133.452 C 171.089 133.483,171.356 133.751,171.683 134.046 L 172.278 134.584 171.741 133.989 C 171.240 133.435,171.089 133.310,171.089 133.452 M161.574 134.366 C 161.574 134.398,161.841 134.666,162.168 134.961 L 162.763 135.499 162.226 134.904 C 161.725 134.350,161.574 134.225,161.574 134.366 M163.220 136.196 C 163.220 136.228,163.488 136.495,163.815 136.791 L 164.410 137.328 163.872 136.734 C 163.371 136.179,163.220 136.055,163.220 136.196 M98.877 138.089 C 99.492 138.752,99.539 138.860,99.243 138.937 C 99.008 138.997,99.059 139.031,99.405 139.046 C 100.048 139.073,100.061 139.103,99.040 138.144 L 98.170 137.328 98.877 138.089 M145.644 139.021 L 145.014 139.707 145.700 139.077 C 146.077 138.730,146.386 138.421,146.386 138.390 C 146.386 138.251,146.231 138.382,145.644 139.021 M214.235 139.936 C 214.202 140.011,214.225 140.567,214.285 141.171 L 214.394 142.269 214.425 141.034 C 214.453 139.909,214.394 139.568,214.235 139.936 M120.723 140.297 C 121.050 140.338,121.585 140.338,121.912 140.297 C 122.239 140.256,121.972 140.223,121.317 140.223 C 120.663 140.223,120.396 140.256,120.723 140.297 M123.837 140.297 C 124.166 140.338,124.660 140.337,124.935 140.295 C 125.210 140.254,124.941 140.220,124.337 140.221 C 123.733 140.222,123.508 140.257,123.837 140.297 M189.067 140.481 C 189.444 140.520,190.062 140.520,190.439 140.481 C 190.817 140.441,190.508 140.409,189.753 140.409 C 188.998 140.409,188.689 140.441,189.067 140.481 M193.641 140.479 C 193.918 140.521,194.371 140.521,194.648 140.479 C 194.925 140.437,194.698 140.403,194.145 140.403 C 193.591 140.403,193.365 140.437,193.641 140.479 M170.906 142.079 C 170.906 142.129,171.235 142.338,171.638 142.543 C 172.040 142.749,172.370 142.876,172.370 142.825 C 172.370 142.775,172.040 142.566,171.638 142.360 C 171.235 142.155,170.906 142.028,170.906 142.079 M61.025 143.824 C 61.418 144.227,61.781 144.556,61.831 144.556 C 61.881 144.556,61.601 144.227,61.208 143.824 C 60.815 143.422,60.452 143.092,60.401 143.092 C 60.351 143.092,60.632 143.422,61.025 143.824 M73.147 145.608 C 78.003 145.635,85.949 145.635,90.805 145.608 C 95.661 145.581,91.688 145.559,81.976 145.559 C 72.264 145.559,68.291 145.581,73.147 145.608 M28.129 146.518 C 28.454 146.559,29.031 146.559,29.410 146.520 C 29.790 146.480,29.524 146.447,28.820 146.446 C 28.115 146.445,27.805 146.478,28.129 146.518 M33.166 146.517 C 33.442 146.559,33.895 146.559,34.172 146.517 C 34.449 146.475,34.222 146.441,33.669 146.441 C 33.115 146.441,32.889 146.475,33.166 146.517 M121.729 146.887 C 122.308 146.924,123.255 146.924,123.833 146.887 C 124.412 146.851,123.939 146.821,122.781 146.821 C 121.624 146.821,121.151 146.851,121.729 146.887 M189.808 146.888 C 190.693 146.922,192.093 146.922,192.918 146.888 C 193.744 146.854,193.019 146.827,191.308 146.827 C 189.597 146.827,188.922 146.855,189.808 146.888 " stroke="none" fill="#848484" fill-rule="evenodd"></path></g></svg>